<mxfile host="app.diagrams.net" modified="2024-04-08T15:27:15.980Z" agent="Mozilla/5.0 (Windows NT 10.0; Win64; x64; rv:124.0) Gecko/20100101 Firefox/124.0" etag="RcqPIwD50lWLRtyLSfHA" version="24.2.2" type="device">
  <diagram name="Page-1" id="b6EvUNp3tQtbGN3iHut3">
    <mxGraphModel dx="2048" dy="1748" grid="1" gridSize="10" guides="1" tooltips="1" connect="1" arrows="1" fold="1" page="1" pageScale="1" pageWidth="827" pageHeight="1169" math="0" shadow="0">
      <root>
        <mxCell id="0" />
        <mxCell id="1" parent="0" />
        <mxCell id="5tlc8PSZ5jQY99YANNpV-49" value="" style="rounded=0;whiteSpace=wrap;html=1;" vertex="1" parent="1">
          <mxGeometry x="-420" y="-20" width="1020" height="650" as="geometry" />
        </mxCell>
        <mxCell id="5tlc8PSZ5jQY99YANNpV-30" value="" style="rounded=1;whiteSpace=wrap;html=1;fillColor=#f8cecc;strokeColor=#b85450;" vertex="1" parent="1">
          <mxGeometry x="690" y="120" width="190" height="370" as="geometry" />
        </mxCell>
        <mxCell id="5tlc8PSZ5jQY99YANNpV-22" value="" style="rounded=1;whiteSpace=wrap;html=1;fillColor=#d5e8d4;strokeColor=#82b366;" vertex="1" parent="1">
          <mxGeometry x="-330" y="174.75" width="270" height="200" as="geometry" />
        </mxCell>
        <mxCell id="5tlc8PSZ5jQY99YANNpV-21" value="" style="rounded=1;whiteSpace=wrap;html=1;fillColor=#dae8fc;strokeColor=#6c8ebf;" vertex="1" parent="1">
          <mxGeometry x="102.00999999999999" y="370" width="473" height="200" as="geometry" />
        </mxCell>
        <mxCell id="5tlc8PSZ5jQY99YANNpV-19" value="" style="rounded=1;whiteSpace=wrap;html=1;" vertex="1" parent="1">
          <mxGeometry x="28" y="25.65" width="280" height="169.1" as="geometry" />
        </mxCell>
        <mxCell id="5tlc8PSZ5jQY99YANNpV-47" style="rounded=0;orthogonalLoop=1;jettySize=auto;html=1;entryX=0.25;entryY=1;entryDx=0;entryDy=0;" edge="1" parent="1" source="5tlc8PSZ5jQY99YANNpV-1" target="5tlc8PSZ5jQY99YANNpV-45">
          <mxGeometry relative="1" as="geometry" />
        </mxCell>
        <mxCell id="5tlc8PSZ5jQY99YANNpV-1" value="" style="image;points=[];aspect=fixed;html=1;align=center;shadow=0;dashed=0;image=img/lib/allied_telesis/switch/Switch_24_port_L2.svg;" vertex="1" parent="1">
          <mxGeometry x="290" y="263.5" width="82.42" height="56.5" as="geometry" />
        </mxCell>
        <mxCell id="5tlc8PSZ5jQY99YANNpV-2" value="" style="image;points=[];aspect=fixed;html=1;align=center;shadow=0;dashed=0;image=img/lib/allied_telesis/computer_and_terminals/Personal_Computer.svg;" vertex="1" parent="1">
          <mxGeometry x="180" y="100" width="45.6" height="61.800000000000004" as="geometry" />
        </mxCell>
        <mxCell id="5tlc8PSZ5jQY99YANNpV-3" value="" style="image;points=[];aspect=fixed;html=1;align=center;shadow=0;dashed=0;image=img/lib/allied_telesis/computer_and_terminals/Server_Desktop.svg;" vertex="1" parent="1">
          <mxGeometry x="-231.68" y="194.75" width="73.37" height="93" as="geometry" />
        </mxCell>
        <mxCell id="5tlc8PSZ5jQY99YANNpV-4" value="" style="image;points=[];aspect=fixed;html=1;align=center;shadow=0;dashed=0;image=img/lib/allied_telesis/security/DVS_Surveillance_Monitor.svg;" vertex="1" parent="1">
          <mxGeometry x="257" y="420" width="42" height="60" as="geometry" />
        </mxCell>
        <mxCell id="5tlc8PSZ5jQY99YANNpV-5" value="" style="image;points=[];aspect=fixed;html=1;align=center;shadow=0;dashed=0;image=img/lib/allied_telesis/security/DVS_Surveillance_Monitor.svg;" vertex="1" parent="1">
          <mxGeometry x="393" y="420" width="42" height="60" as="geometry" />
        </mxCell>
        <mxCell id="5tlc8PSZ5jQY99YANNpV-54" style="rounded=0;orthogonalLoop=1;jettySize=auto;html=1;entryX=-0.154;entryY=0.597;entryDx=0;entryDy=0;entryPerimeter=0;" edge="1" parent="1" source="5tlc8PSZ5jQY99YANNpV-6" target="5tlc8PSZ5jQY99YANNpV-25">
          <mxGeometry relative="1" as="geometry">
            <mxPoint x="650" y="190" as="targetPoint" />
          </mxGeometry>
        </mxCell>
        <mxCell id="5tlc8PSZ5jQY99YANNpV-6" value="" style="image;html=1;image=img/lib/clip_art/networking/Firewall-page1_128x128.png" vertex="1" parent="1">
          <mxGeometry x="575.01" y="263.5" width="60" height="64" as="geometry" />
        </mxCell>
        <mxCell id="5tlc8PSZ5jQY99YANNpV-9" value="&lt;div&gt;PC de surveillance&lt;/div&gt;&lt;div&gt;Guillaume&lt;br&gt;&lt;/div&gt;" style="text;html=1;align=center;verticalAlign=middle;whiteSpace=wrap;rounded=0;" vertex="1" parent="1">
          <mxGeometry x="248" y="500" width="60" height="30" as="geometry" />
        </mxCell>
        <mxCell id="5tlc8PSZ5jQY99YANNpV-15" value="&lt;div&gt;PC de surveillance&lt;/div&gt;&lt;div&gt;Gwendal&lt;br&gt;&lt;/div&gt;" style="text;html=1;align=center;verticalAlign=middle;whiteSpace=wrap;rounded=0;" vertex="1" parent="1">
          <mxGeometry x="380" y="500" width="60" height="30" as="geometry" />
        </mxCell>
        <mxCell id="5tlc8PSZ5jQY99YANNpV-16" value="Partie Blue Team" style="text;html=1;align=center;verticalAlign=middle;whiteSpace=wrap;rounded=0;" vertex="1" parent="1">
          <mxGeometry x="120" y="530" width="60" height="30" as="geometry" />
        </mxCell>
        <mxCell id="5tlc8PSZ5jQY99YANNpV-17" value="PC client" style="text;html=1;align=center;verticalAlign=middle;whiteSpace=wrap;rounded=0;" vertex="1" parent="1">
          <mxGeometry x="165.6" y="70" width="60" height="30" as="geometry" />
        </mxCell>
        <mxCell id="5tlc8PSZ5jQY99YANNpV-20" value="Partie cliente" style="text;html=1;align=center;verticalAlign=middle;whiteSpace=wrap;rounded=0;" vertex="1" parent="1">
          <mxGeometry x="60" y="40" width="60" height="30" as="geometry" />
        </mxCell>
        <mxCell id="5tlc8PSZ5jQY99YANNpV-23" value="&lt;div&gt;Serveur&lt;/div&gt;&lt;div&gt;Virtualisation (cible)&lt;br&gt;&lt;/div&gt;" style="text;html=1;align=center;verticalAlign=middle;whiteSpace=wrap;rounded=0;" vertex="1" parent="1">
          <mxGeometry x="-225" y="314.75" width="60" height="30" as="geometry" />
        </mxCell>
        <mxCell id="5tlc8PSZ5jQY99YANNpV-25" value="" style="image;points=[];aspect=fixed;html=1;align=center;shadow=0;dashed=0;image=img/lib/allied_telesis/computer_and_terminals/Laptop.svg;" vertex="1" parent="1">
          <mxGeometry x="753.65" y="180" width="62.7" height="63.6" as="geometry" />
        </mxCell>
        <mxCell id="5tlc8PSZ5jQY99YANNpV-26" value="" style="image;points=[];aspect=fixed;html=1;align=center;shadow=0;dashed=0;image=img/lib/allied_telesis/computer_and_terminals/Laptop.svg;" vertex="1" parent="1">
          <mxGeometry x="753.65" y="330" width="59.15" height="60" as="geometry" />
        </mxCell>
        <mxCell id="5tlc8PSZ5jQY99YANNpV-27" value="" style="html=1;verticalLabelPosition=bottom;align=center;labelBackgroundColor=#ffffff;verticalAlign=top;strokeWidth=2;strokeColor=#0080F0;shadow=0;dashed=0;shape=mxgraph.ios7.icons.flag;" vertex="1" parent="1">
          <mxGeometry x="-151.68" y="257.75" width="30" height="30" as="geometry" />
        </mxCell>
        <mxCell id="5tlc8PSZ5jQY99YANNpV-28" value="Switch Cisco niveau 2" style="text;html=1;align=center;verticalAlign=middle;whiteSpace=wrap;rounded=0;" vertex="1" parent="1">
          <mxGeometry x="237.5" y="300" width="81" height="30" as="geometry" />
        </mxCell>
        <mxCell id="5tlc8PSZ5jQY99YANNpV-29" value="Pare-feu" style="text;html=1;align=center;verticalAlign=middle;whiteSpace=wrap;rounded=0;" vertex="1" parent="1">
          <mxGeometry x="490" y="330" width="60" height="30" as="geometry" />
        </mxCell>
        <mxCell id="5tlc8PSZ5jQY99YANNpV-31" value="Partie Red Team" style="text;html=1;align=center;verticalAlign=middle;whiteSpace=wrap;rounded=0;" vertex="1" parent="1">
          <mxGeometry x="720" y="131.8" width="60" height="30" as="geometry" />
        </mxCell>
        <mxCell id="5tlc8PSZ5jQY99YANNpV-32" value="PC attaquant de RÃ©mi" style="text;html=1;align=center;verticalAlign=middle;whiteSpace=wrap;rounded=0;" vertex="1" parent="1">
          <mxGeometry x="753.65" y="259.75" width="60" height="30" as="geometry" />
        </mxCell>
        <mxCell id="5tlc8PSZ5jQY99YANNpV-33" value="PC attaquant de Adrien" style="text;html=1;align=center;verticalAlign=middle;whiteSpace=wrap;rounded=0;" vertex="1" parent="1">
          <mxGeometry x="752.8" y="410" width="60" height="30" as="geometry" />
        </mxCell>
        <mxCell id="5tlc8PSZ5jQY99YANNpV-34" style="rounded=0;orthogonalLoop=1;jettySize=auto;html=1;entryX=0.981;entryY=0.538;entryDx=0;entryDy=0;entryPerimeter=0;" edge="1" parent="1" source="5tlc8PSZ5jQY99YANNpV-1" target="5tlc8PSZ5jQY99YANNpV-3">
          <mxGeometry relative="1" as="geometry" />
        </mxCell>
        <mxCell id="5tlc8PSZ5jQY99YANNpV-35" style="rounded=0;orthogonalLoop=1;jettySize=auto;html=1;entryX=0.544;entryY=1.149;entryDx=0;entryDy=0;entryPerimeter=0;strokeColor=default;" edge="1" parent="1" source="5tlc8PSZ5jQY99YANNpV-1" target="5tlc8PSZ5jQY99YANNpV-2">
          <mxGeometry relative="1" as="geometry" />
        </mxCell>
        <mxCell id="5tlc8PSZ5jQY99YANNpV-37" style="edgeStyle=orthogonalEdgeStyle;rounded=0;orthogonalLoop=1;jettySize=auto;html=1;entryX=1;entryY=0.483;entryDx=0;entryDy=0;entryPerimeter=0;" edge="1" parent="1" source="5tlc8PSZ5jQY99YANNpV-1" target="5tlc8PSZ5jQY99YANNpV-4">
          <mxGeometry relative="1" as="geometry">
            <Array as="points">
              <mxPoint x="331" y="449" />
            </Array>
          </mxGeometry>
        </mxCell>
        <mxCell id="5tlc8PSZ5jQY99YANNpV-43" value="" style="endArrow=classic;html=1;rounded=0;entryX=-0.071;entryY=0.467;entryDx=0;entryDy=0;entryPerimeter=0;" edge="1" parent="1" target="5tlc8PSZ5jQY99YANNpV-5">
          <mxGeometry width="50" height="50" relative="1" as="geometry">
            <mxPoint x="330" y="450" as="sourcePoint" />
            <mxPoint x="380" y="400" as="targetPoint" />
          </mxGeometry>
        </mxCell>
        <mxCell id="5tlc8PSZ5jQY99YANNpV-44" value="" style="endArrow=none;html=1;rounded=0;entryX=-0.05;entryY=0.645;entryDx=0;entryDy=0;entryPerimeter=0;exitX=0.971;exitY=0.681;exitDx=0;exitDy=0;exitPerimeter=0;" edge="1" parent="1" source="5tlc8PSZ5jQY99YANNpV-1" target="5tlc8PSZ5jQY99YANNpV-6">
          <mxGeometry width="50" height="50" relative="1" as="geometry">
            <mxPoint x="385" y="309.75" as="sourcePoint" />
            <mxPoint x="435" y="259.75" as="targetPoint" />
          </mxGeometry>
        </mxCell>
        <mxCell id="5tlc8PSZ5jQY99YANNpV-45" value="" style="image;html=1;image=img/lib/clip_art/networking/Wireless_Router_128x128.png" vertex="1" parent="1">
          <mxGeometry x="414" y="80.1" width="60" height="60.2" as="geometry" />
        </mxCell>
        <mxCell id="5tlc8PSZ5jQY99YANNpV-48" value="Borne Wifi visiteur" style="text;html=1;align=center;verticalAlign=middle;whiteSpace=wrap;rounded=0;" vertex="1" parent="1">
          <mxGeometry x="410" y="40" width="60" height="30" as="geometry" />
        </mxCell>
        <mxCell id="5tlc8PSZ5jQY99YANNpV-50" value="&lt;font style=&quot;font-size: 15px;&quot;&gt;Partie interne Ã  protÃ©ger&lt;br&gt;&lt;/font&gt;" style="text;html=1;align=center;verticalAlign=middle;whiteSpace=wrap;rounded=0;" vertex="1" parent="1">
          <mxGeometry x="-410" y="-4.35" width="110" height="30" as="geometry" />
        </mxCell>
        <mxCell id="5tlc8PSZ5jQY99YANNpV-51" value="Partie ExtÃ©rieur" style="text;html=1;align=center;verticalAlign=middle;whiteSpace=wrap;rounded=0;" vertex="1" parent="1">
          <mxGeometry x="756.35" width="60" height="30" as="geometry" />
        </mxCell>
        <mxCell id="5tlc8PSZ5jQY99YANNpV-56" style="rounded=0;orthogonalLoop=1;jettySize=auto;html=1;exitX=1;exitY=1;exitDx=0;exitDy=0;entryX=-0.146;entryY=0.817;entryDx=0;entryDy=0;entryPerimeter=0;" edge="1" parent="1" source="5tlc8PSZ5jQY99YANNpV-6" target="5tlc8PSZ5jQY99YANNpV-26">
          <mxGeometry relative="1" as="geometry" />
        </mxCell>
      </root>
    </mxGraphModel>
  </diagram>
</mxfile>
